# xmcd
#
# Track frame offsets: 
#        150
#        17703
#        32653
#        52062
#        70864
#        89481
#        102712
#        134861
#        148849
#        168096
#        192272
#        202897
#        219049
#        267175
#        307991
#        313203
#
# Disc length: 4359 seconds
#
# Revision: 0
# Processed by: cddbd v1.5PL3 Copyright (c) Steve Scherf et al.
# Submitted via: ExactAudioCopy v0.95a4
#
DISCID=ee110510
DTITLE=Hound Dog Taylor - Release the Hound!
DYEAR=1900
DGENRE=Blues
TTITLE0=Wild About You Baby
TTITLE1=Sen-Sa-Shun
TTITLE2=She's Gone
TTITLE3=It Hurts ME Too
TTITLE4=What'd I Say
TTITLE5=One More Time
TTITLE6=Sadie
TTITLE7=Dog Meets the Wolf
TTITLE8=Walking the Ceiling
TTITLE9=Sitting at Home Alone
TTITLE10=Phillips Screwdriver
TTITLE11=Gonna Send You Back to Georgia
TTITLE12=Things Don't Work Out Right
TTITLE13=See ME in the Evening/It's Alright
TTITLE14="talking" (bonus)
TTITLE15=Roll Your Moneymaker (bonus)
EXTD=
EXTT0=
EXTT1=
EXTT2=
EXTT3=
EXTT4=
EXTT5=
EXTT6=
EXTT7=
EXTT8=
EXTT9=
EXTT10=
EXTT11=
EXTT12=
EXTT13=
EXTT14=
EXTT15=
PLAYORDER=
